<?xml version="1.0" encoding="utf-8"?>
<!-- Generator: Adobe Illustrator 26.3.1, SVG Export Plug-In . SVG Version: 6.00 Build 0)  -->
<svg version="1.1" id="Layer_1" xmlns="http://www.w3.org/2000/svg" xmlns:xlink="http://www.w3.org/1999/xlink" x="0px" y="0px"
	 viewBox="0 0 134.8 811.8" style="enable-background:new 0 0 134.8 811.8;" xml:space="preserve">
<style type="text/css">
	.st0{fill:#99FEAC;}
	.st1{fill:#0FBC9E;}
	.st2{fill:#212330;}
	.st3{fill:#FFFFFF;}
</style>
<ellipse transform="matrix(6.652050e-02 -0.9978 0.9978 6.652050e-02 -273.1552 384.5681)" class="st0" cx="69" cy="338.3" rx="36.3" ry="36.3"/>
<polygon class="st1" points="0,0 0,67.4 0,67.6 0,135 0.3,135 34,168.5 68,202.3 68,135 68,135 68,67.6 68,67.4 68,0 "/>
<path class="st2" d="M67.7,203H0v-67.7l33.8,33.8L67.7,203z"/>
<g>
	<polygon class="st2" points="134.8,134.7 134.8,67 67.4,67 67.4,135 0,135 0,203 67.1,203 101.4,168.8 	"/>
	<polygon class="st0" points="134.8,203 134.8,203 134.8,134.7 134.8,134.7 134.8,135 	"/>
	<polygon class="st0" points="134.8,135 134.8,134.7 101.4,168.8 67.1,203 134.8,203 	"/>
</g>
<polygon class="st2" points="134.8,473.7 134.8,407.3 134.8,406.2 134.8,271.2 134.8,271.2 134.8,271.2 134.8,271 134.8,203 
	67.1,203 32.2,238.2 0,270.7 0,271 66.4,271 66.4,406 0,406 0,542 0,542 33.5,575.5 67.4,609.3 67.4,542 101.4,507.8 "/>
<polygon class="st1" points="67.6,406 67.6,338 0,338 0,406 0,406.2 0,542.8 67.4,473.1 134.8,406 "/>
<g>
	<path class="st2" d="M67.4,610c0-18,7.1-35.4,19.8-48.1c12.7-12.7,29.8-19.9,47.6-19.9v0H0v134.8V812h113.9
		c-10-3.3-19.2-8.8-26.6-16.2c-12.5-12.6-19.5-29.6-19.5-47.4c0-17.8,7-34.8,19.5-47.4c12.4-12.5,30-19.6,47.5-19.6V678
		c-17.8-0.1-35-7.2-47.6-19.9C74.5,645.3,67.4,628,67.4,610z"/>
	<path class="st0" d="M134.8,542v134v2c0.1,0,0.1,0,0.2,0v-67.9V542C134.9,542,134.9,542,134.8,542z"/>
	<path class="st0" d="M134.8,542c-17.8,0.1-34.9,7.2-47.6,19.9C74.5,574.6,67.4,592,67.4,610c0,18,7.1,35.3,19.8,48.1
		c12.6,12.7,29.8,19.9,47.6,19.9v-2V542z"/>
</g>
<path class="st0" d="M0,676c17.6,0,34.6,7.1,47,19.8c12.5,12.7,19.5,29.8,19.5,47.7s-7,35.1-19.5,47.7C34.6,803.9,17.6,811,0,811
	v-27c10.6,0,20.7-4.3,28.2-11.9c7.5-7.6,11.7-17.9,11.7-28.7s-4.2-21.1-11.7-28.7C20.7,707.2,10.6,703,0,703V676z"/>
<path class="st3" d="M101,338c0,4.5-0.9,8.9-2.6,13.1c-1.7,4.1-4.2,7.9-7.4,11.1c-3.2,3.2-6.9,5.7-11.1,7.4
	c-4.1,1.7-8.6,2.6-13.1,2.6s-8.9-0.9-13.1-2.6c-4.1-1.7-7.9-4.2-11.1-7.4c-3.2-3.2-5.7-6.9-7.4-11.1c-1.7-4.1-2.6-8.6-2.6-13.1h34.2
	H101z"/>
<ellipse class="st0" cx="69.2" cy="67.5" rx="36.5" ry="37.5"/>
<polygon class="st0" points="-0.4,543.5 0,542.8 0.1,609.6 0,676 66.5,610.4 "/>
</svg>
