<svg width="1915" height="318" viewBox="0 0 1915 318" fill="none" xmlns="http://www.w3.org/2000/svg">
<g clip-path="url(#clip0_223_3)">
<path d="M1111.45 248.197C1158.64 251.343 1199.44 215.638 1202.59 168.448C1205.73 121.258 1170.03 80.4528 1122.84 77.3068C1075.65 74.1608 1034.85 109.865 1031.7 157.056C1028.56 204.246 1064.26 245.051 1111.45 248.197Z" fill="#99FEAC"/>
<path d="M1915 0L1756.01 -6.94983e-06L1755.53 -6.97045e-06L1596.54 -1.39203e-05L1596.54 0.707701L1517.52 80.2077L1437.78 160.415L1596.54 160.415L1755.53 160.415L1756.01 160.415L1915 160.415L1915 0Z" fill="#0FBC9E"/>
<path d="M1436.13 159.708L1436.13 -6.98076e-06L1595.83 0L1516.1 79.7359L1436.13 159.708Z" fill="#212330"/>
<path d="M1597.25 318L1756.95 318L1756.95 159L1596.54 159L1596.54 -7.0117e-06L1436.13 -1.40234e-05L1436.13 158.292L1516.81 239.208L1597.25 318Z" fill="#212330"/>
<path d="M1596.54 318L1597.25 318L1516.81 239.208L1436.13 158.292L1436.13 318L1596.54 318Z" fill="#99FEAC"/>
<path d="M797.563 318L954.197 318L956.792 318L1275.25 318L1275.72 318L1436.13 318L1436.13 158.292L1353.1 75.9614L1276.43 -3.74983e-05L1275.72 -3.75293e-05L1275.72 156.641L957.264 156.641L957.264 -5.14496e-05L636.446 -6.5473e-05L557.421 79.0281L477.688 159L636.446 159L717.122 239.208L797.563 318Z" fill="#212330"/>
<path d="M957.264 159.472L1117.67 159.472L1117.67 -3.05176e-05L957.264 -3.75293e-05L956.792 -3.75499e-05L634.559 -5.16352e-05L798.978 159L957.264 318L957.264 159.472Z" fill="#0FBC9E"/>
<path d="M476.037 159C518.498 159 559.544 175.749 589.503 205.709C619.462 235.669 636.446 276.009 636.446 318L636.446 -6.10352e-05L318.459 -7.49348e-05L-0.471802 -8.88757e-05L-0.471814 268.696C7.31273 245.105 20.287 223.402 37.7433 205.945C67.4662 176.457 107.568 159.944 149.558 159.944C191.547 159.944 231.649 176.457 261.372 205.945C290.859 235.197 307.608 276.717 307.608 318L315.628 318C315.864 276.009 332.613 235.433 362.571 205.709C392.766 175.749 433.576 159 476.037 159Z" fill="#212330"/>
<path d="M636.446 318C636.21 276.009 619.462 235.669 589.503 205.709C559.544 175.749 518.498 159 476.037 159C433.576 159 392.766 175.749 362.572 205.709C332.613 235.433 315.628 276.009 315.628 318L320.346 318L636.446 318Z" fill="#99FEAC"/>
<path d="M320.346 -6.10352e-05C320.346 41.5192 303.598 81.6231 273.639 110.875C243.68 140.363 203.342 156.877 161.117 156.877C118.891 156.877 78.3172 140.363 48.5944 110.875C18.6356 81.6231 1.88708 41.5192 1.88708 -7.49554e-05L65.5789 -7.21714e-05C65.5789 25.0059 75.7225 48.8323 93.6505 66.5252C111.579 84.2181 135.876 94.1261 161.352 94.1261C186.829 94.1261 211.126 84.2181 229.054 66.5252C246.747 48.8323 256.654 25.0059 256.654 -6.38192e-05L320.346 -6.10352e-05Z" fill="#99FEAC"/>
<path d="M1117.67 238.264C1107.06 238.264 1096.68 236.141 1086.77 232.131C1077.1 228.12 1068.13 222.223 1060.59 214.674C1053.04 207.125 1047.14 198.396 1043.13 188.488C1039.12 178.816 1037 168.2 1037 157.585C1037 146.969 1039.12 136.589 1043.13 126.681C1047.14 117.009 1053.04 108.045 1060.59 100.496C1068.13 92.9466 1076.86 87.049 1086.77 83.0386C1096.44 79.0282 1107.06 76.905 1117.67 76.905L1117.67 157.585L1117.67 238.264Z" fill="white"/>
<path d="M1667.31 163.246C1667.31 210.801 1706.91 249.352 1755.77 249.352C1804.63 249.352 1844.23 210.801 1844.23 163.246C1844.23 115.692 1804.63 77.141 1755.77 77.141C1706.91 77.141 1667.31 115.692 1667.31 163.246Z" fill="#99FEAC"/>
<path d="M632.908 -0.943665L634.559 -4.40478e-05L476.981 0.235854L320.346 -5.77825e-05L475.094 156.877L632.908 -0.943665Z" fill="#99FEAC"/>
</g>
<defs>
<clipPath id="clip0_223_3">
<rect width="318" height="1915" fill="white" transform="translate(1915) rotate(90)"/>
</clipPath>
</defs>
</svg>
