<svg width="44" height="46" viewBox="0 0 44 46" fill="none" xmlns="http://www.w3.org/2000/svg">
<path d="M22 43.9389C34.1503 43.9389 44 34.1028 44 21.9695C44 9.83606 34.1503 0 22 0C9.84974 0 0 9.83606 0 21.9695C0 34.1028 9.84974 43.9389 22 43.9389Z" fill="url(#paint0_linear_5_17)"/>
<path d="M36.4244 21.6884C36.4244 23.89 36.1429 25.9042 35.6035 27.7077C35.064 29.5112 34.2666 31.0804 33.2112 32.3686C32.1557 33.6802 30.8657 34.6873 29.2943 35.4134C27.7463 36.1395 25.9404 36.4908 23.9233 36.4908C22.7975 36.4908 21.7421 36.3737 20.7805 36.1629C19.7954 35.9521 18.8572 35.6476 17.966 35.2495V46H9.87427V8.40831C10.6013 8.19752 11.4222 7.98672 12.3839 7.77593C13.322 7.58855 14.3071 7.40118 15.3391 7.26065C16.3711 7.12012 17.4265 7.00301 18.4819 6.90933C19.5608 6.81564 20.5694 6.7688 21.5544 6.7688C23.8999 6.7688 26.0107 7.12012 27.8636 7.82277C29.7165 8.52542 31.2645 9.53255 32.531 10.7973C33.7975 12.0855 34.7591 13.6547 35.4393 15.4816C36.096 17.3554 36.4244 19.4165 36.4244 21.6884ZM28.1685 21.8991C28.1685 19.393 27.6056 17.4022 26.4798 15.9032C25.354 14.4042 23.6888 13.6547 21.4841 13.6547C20.757 13.6547 20.1003 13.6782 19.467 13.725C18.8572 13.7719 18.3412 13.8421 17.9425 13.9124V28.504C18.4585 28.8319 19.1152 29.0896 19.9361 29.3238C20.757 29.5346 21.5779 29.6517 22.3988 29.6517C26.2453 29.6517 28.1685 27.0753 28.1685 21.8991Z" fill="#212330"/>
<defs>
<linearGradient id="paint0_linear_5_17" x1="22.0048" y1="43.9485" x2="22.0048" y2="0" gradientUnits="userSpaceOnUse">
<stop stop-color="#00B59C"/>
<stop offset="1" stop-color="#9CFFAC"/>
</linearGradient>
</defs>
</svg>
