<svg width="144" height="39" viewBox="0 0 144 39" fill="none" xmlns="http://www.w3.org/2000/svg">
<path d="M55.396 20.748C55.396 19.46 55.1067 18.4333 54.528 17.668C53.9493 16.884 53.0907 16.492 51.952 16.492C51.5787 16.492 51.2333 16.5107 50.916 16.548C50.5987 16.5667 50.3373 16.5947 50.132 16.632V24.164C50.3933 24.332 50.7293 24.472 51.14 24.584C51.5693 24.696 51.9987 24.752 52.428 24.752C54.4067 24.752 55.396 23.4173 55.396 20.748ZM59.652 20.636C59.652 21.7747 59.512 22.8107 59.232 23.744C58.952 24.6773 58.5413 25.48 58 26.152C57.4587 26.824 56.7867 27.3467 55.984 27.72C55.1813 28.0933 54.2573 28.28 53.212 28.28C52.6333 28.28 52.092 28.224 51.588 28.112C51.084 28 50.5987 27.8413 50.132 27.636V33.18H45.96V13.776C46.3333 13.664 46.7627 13.5613 47.248 13.468C47.7333 13.356 48.2373 13.2627 48.76 13.188C49.3013 13.1133 49.8427 13.0573 50.384 13.02C50.944 12.964 51.476 12.936 51.98 12.936C53.1933 12.936 54.276 13.1227 55.228 13.496C56.18 13.8507 56.9827 14.364 57.636 15.036C58.2893 15.6893 58.784 16.492 59.12 17.444C59.4747 18.396 59.652 19.46 59.652 20.636ZM75.5516 13.272C74.7116 16.1093 73.8343 18.7693 72.9196 21.252C72.005 23.7347 71.0063 26.1427 69.9236 28.476C69.5316 29.316 69.1396 30.0253 68.7476 30.604C68.3556 31.2013 67.9263 31.6867 67.4596 32.06C66.993 32.452 66.461 32.732 65.8636 32.9C65.285 33.0867 64.6036 33.18 63.8196 33.18C63.1663 33.18 62.5596 33.1147 61.9996 32.984C61.4583 32.872 61.0103 32.7413 60.6556 32.592L61.3836 29.26C61.813 29.4093 62.1956 29.512 62.5316 29.568C62.8676 29.624 63.2223 29.652 63.5956 29.652C64.3423 29.652 64.9116 29.4467 65.3036 29.036C65.7143 28.644 66.0596 28.0933 66.3396 27.384C65.3876 25.5173 64.4356 23.4267 63.4836 21.112C62.5316 18.7787 61.6356 16.1653 60.7956 13.272H65.2196C65.4063 14 65.621 14.7933 65.8636 15.652C66.125 16.492 66.3956 17.3507 66.6756 18.228C66.9556 19.0867 67.2356 19.9267 67.5156 20.748C67.8143 21.5693 68.0943 22.316 68.3556 22.988C68.5983 22.316 68.8503 21.5693 69.1116 20.748C69.373 19.9267 69.625 19.0867 69.8676 18.228C70.129 17.3507 70.3716 16.492 70.5956 15.652C70.8383 14.7933 71.053 14 71.2396 13.272H75.5516ZM77.7881 13.776C78.4975 13.5707 79.4121 13.384 80.5321 13.216C81.6521 13.0293 82.8281 12.936 84.0601 12.936C85.3108 12.936 86.3468 13.104 87.1681 13.44C88.0081 13.7573 88.6708 14.2147 89.1561 14.812C89.6415 15.4093 89.9868 16.1187 90.1921 16.94C90.3975 17.7613 90.5001 18.676 90.5001 19.684V28H86.3281V20.188C86.3281 18.844 86.1508 17.892 85.7961 17.332C85.4415 16.772 84.7788 16.492 83.8081 16.492C83.5095 16.492 83.1921 16.5107 82.8561 16.548C82.5201 16.5667 82.2215 16.5947 81.9601 16.632V28H77.7881V13.776ZM93.5764 20.748C93.5764 19.4413 93.7724 18.3027 94.1644 17.332C94.5751 16.3427 95.1071 15.5213 95.7604 14.868C96.4137 14.2147 97.1604 13.72 98.0004 13.384C98.8591 13.048 99.7364 12.88 100.632 12.88C102.723 12.88 104.375 13.524 105.588 14.812C106.802 16.0813 107.408 17.9573 107.408 20.44C107.408 20.6827 107.399 20.9533 107.38 21.252C107.362 21.532 107.343 21.784 107.324 22.008H97.8604C97.9537 22.8667 98.3551 23.548 99.0644 24.052C99.7737 24.556 100.726 24.808 101.92 24.808C102.686 24.808 103.432 24.7427 104.16 24.612C104.907 24.4627 105.514 24.2853 105.98 24.08L106.54 27.468C106.316 27.58 106.018 27.692 105.644 27.804C105.271 27.916 104.851 28.0093 104.384 28.084C103.936 28.1773 103.451 28.252 102.928 28.308C102.406 28.364 101.883 28.392 101.36 28.392C100.035 28.392 98.8777 28.196 97.8884 27.804C96.9177 27.412 96.1057 26.88 95.4524 26.208C94.8177 25.5173 94.3417 24.7053 94.0244 23.772C93.7257 22.8387 93.5764 21.8307 93.5764 20.748ZM103.376 19.152C103.358 18.7973 103.292 18.452 103.18 18.116C103.087 17.78 102.928 17.4813 102.704 17.22C102.499 16.9587 102.228 16.744 101.892 16.576C101.575 16.408 101.174 16.324 100.688 16.324C100.222 16.324 99.8204 16.408 99.4844 16.576C99.1484 16.7253 98.8684 16.9307 98.6444 17.192C98.4204 17.4533 98.2431 17.7613 98.1124 18.116C98.0004 18.452 97.9164 18.7973 97.8604 19.152H103.376ZM116.48 17.752L119.392 13.272H123.704L118.664 20.356C119.784 21.756 120.801 23.1187 121.716 24.444C122.631 25.7693 123.359 26.9547 123.9 28H119.42C119.271 27.72 119.084 27.3747 118.86 26.964C118.636 26.5347 118.384 26.096 118.104 25.648C117.824 25.1813 117.525 24.724 117.208 24.276C116.909 23.8093 116.611 23.3893 116.312 23.016C116.032 23.3707 115.743 23.7627 115.444 24.192C115.164 24.6213 114.893 25.06 114.632 25.508C114.371 25.9373 114.109 26.3667 113.848 26.796C113.605 27.2253 113.391 27.6267 113.204 28H108.948C109.172 27.5333 109.48 26.9827 109.872 26.348C110.264 25.7133 110.684 25.06 111.132 24.388C111.599 23.6973 112.084 23.016 112.588 22.344C113.092 21.6533 113.587 21.0093 114.072 20.412C113.232 19.236 112.392 18.0507 111.552 16.856C110.712 15.6427 109.881 14.448 109.06 13.272H113.568L116.48 17.752ZM139.224 20.608C139.224 21.7653 139.056 22.8293 138.72 23.8C138.384 24.752 137.899 25.5733 137.264 26.264C136.63 26.936 135.864 27.4587 134.968 27.832C134.091 28.2053 133.102 28.392 132 28.392C130.918 28.392 129.928 28.2053 129.032 27.832C128.155 27.4587 127.399 26.936 126.764 26.264C126.13 25.5733 125.635 24.752 125.28 23.8C124.926 22.8293 124.748 21.7653 124.748 20.608C124.748 19.4507 124.926 18.396 125.28 17.444C125.654 16.492 126.158 15.68 126.792 15.008C127.446 14.336 128.211 13.8133 129.088 13.44C129.984 13.0667 130.955 12.88 132 12.88C133.064 12.88 134.035 13.0667 134.912 13.44C135.808 13.8133 136.574 14.336 137.208 15.008C137.843 15.68 138.338 16.492 138.692 17.444C139.047 18.396 139.224 19.4507 139.224 20.608ZM134.968 20.608C134.968 19.32 134.707 18.312 134.184 17.584C133.68 16.8373 132.952 16.464 132 16.464C131.048 16.464 130.311 16.8373 129.788 17.584C129.266 18.312 129.004 19.32 129.004 20.608C129.004 21.896 129.266 22.9227 129.788 23.688C130.311 24.4347 131.048 24.808 132 24.808C132.952 24.808 133.68 24.4347 134.184 23.688C134.707 22.9227 134.968 21.896 134.968 20.608Z" fill="#1B1D28"/>
<path d="M18.5 37.2525C28.7173 37.2525 37 28.9133 37 18.6263C37 8.33927 28.7173 0 18.5 0C8.28273 0 0 8.33927 0 18.6263C0 28.9133 8.28273 37.2525 18.5 37.2525Z" fill="url(#paint0_linear_202_3)"/>
<path d="M30.6296 18.388C30.6296 20.2546 30.3929 21.9623 29.9393 23.4913C29.4857 25.0203 28.8151 26.3508 27.9275 27.4429C27.04 28.555 25.9553 29.4088 24.6338 30.0244C23.3321 30.64 21.8135 30.9379 20.1173 30.9379C19.1706 30.9379 18.2831 30.8386 17.4745 30.6598C16.6461 30.4811 15.8572 30.223 15.1077 29.8854V39H8.30334V7.12879C8.91475 6.95007 9.60505 6.77136 10.4137 6.59264C11.2026 6.43378 12.031 6.27492 12.8988 6.15578C13.7666 6.03663 14.6541 5.93734 15.5416 5.85791C16.4489 5.77848 17.2969 5.73877 18.1253 5.73877C20.0976 5.73877 21.8726 6.03663 23.4307 6.63235C24.9888 7.22808 26.2906 8.08195 27.3556 9.15425C28.4206 10.2464 29.2293 11.5769 29.8012 13.1257C30.3535 14.7143 30.6296 16.4618 30.6296 18.388ZM23.6871 18.5667C23.6871 16.4419 23.2138 14.754 22.2671 13.4832C21.3204 12.2123 19.9201 11.5769 18.0661 11.5769C17.4547 11.5769 16.9025 11.5967 16.37 11.6364C15.8572 11.6761 15.4233 11.7357 15.088 11.7953V24.1665C15.5219 24.4445 16.0741 24.6629 16.7644 24.8615C17.4547 25.0402 18.145 25.1395 18.8353 25.1395C22.0699 25.1395 23.6871 22.9552 23.6871 18.5667Z" fill="#212330"/>
<defs>
<linearGradient id="paint0_linear_202_3" x1="18.5041" y1="37.2607" x2="18.5041" y2="0" gradientUnits="userSpaceOnUse">
<stop stop-color="#00B59C"/>
<stop offset="1" stop-color="#9CFFAC"/>
</linearGradient>
</defs>
</svg>
