<svg width="108" height="25" viewBox="0 0 108 25" fill="none" xmlns="http://www.w3.org/2000/svg">
<path d="M16.2524 9.19125C16.2524 10.5349 16.0802 11.7642 15.7503 12.8649C15.4204 13.9655 14.9327 14.9232 14.2872 15.7094C13.6417 16.5099 12.8527 17.1245 11.8916 17.5677C10.9449 18.0108 9.84035 18.2252 8.60672 18.2252C7.91818 18.2252 7.27268 18.1537 6.68455 18.0251C6.08208 17.8964 5.5083 17.7106 4.96321 17.4676V24.0287H0V1.07213C0.444681 0.943481 0.946739 0.814833 1.53487 0.686185C2.10865 0.571831 2.71112 0.457477 3.34228 0.371712C3.97344 0.285947 4.61894 0.214475 5.26444 0.157299C5.92429 0.100122 6.54111 0.0715332 7.14358 0.0715332C8.57803 0.0715332 9.86904 0.285947 11.0023 0.714773C12.1355 1.1436 13.0822 1.75825 13.8568 2.53014C14.6314 3.31632 15.2196 4.27403 15.6355 5.38898C16.0372 6.53252 16.2524 7.79041 16.2524 9.19125ZM11.2031 9.3199C11.2031 7.79041 10.8588 6.57541 10.1703 5.66057C9.48174 4.74574 8.46328 4.28833 7.11489 4.28833C6.67021 4.28833 6.26856 4.30262 5.88126 4.33121C5.5083 4.3598 5.19272 4.40268 4.94886 4.44557V13.3509C5.26444 13.551 5.66609 13.7082 6.16815 13.8512C6.67021 13.9798 7.17227 14.0513 7.67433 14.0513C10.0268 14.0513 11.2031 12.4789 11.2031 9.3199Z" fill="#212330"/>
<path d="M34.5559 0.471704C33.5518 3.83085 32.519 6.97557 31.4288 9.90589C30.3387 12.8362 29.1481 15.6951 27.8714 18.4538C27.398 19.4401 26.939 20.2978 26.48 20.9839C26.0066 21.6843 25.5045 22.2561 24.9451 22.6992C24.3857 23.1566 23.7689 23.4854 23.066 23.6855C22.3631 23.8999 21.5455 24 20.6274 24C19.8528 24 19.1356 23.9285 18.4757 23.7856C17.8159 23.6426 17.2851 23.4854 16.8691 23.2996L17.7298 19.3544C18.2462 19.5259 18.6909 19.6546 19.0925 19.7117C19.4942 19.7689 19.9102 19.8118 20.3549 19.8118C21.2442 19.8118 21.9184 19.5688 22.3918 19.0971C22.8652 18.6254 23.2668 17.9678 23.6111 17.1245C22.4779 14.9232 21.3446 12.436 20.2258 9.69148C19.0925 6.94699 18.031 3.85943 17.0413 0.443115H22.2914C22.5065 1.30077 22.7791 2.22989 23.0803 3.24478C23.3816 4.24538 23.6971 5.26027 24.0271 6.28945C24.357 7.31864 24.7013 8.31923 25.0455 9.29124C25.3898 10.2632 25.7197 11.1495 26.0353 11.9357C26.3222 11.1352 26.6234 10.2632 26.939 9.29124C27.2546 8.31923 27.5558 7.31864 27.8571 6.28945C28.1583 5.26027 28.4452 4.24538 28.7177 3.24478C28.9903 2.24419 29.2485 1.31506 29.4636 0.443115H34.5559V0.471704Z" fill="#212330"/>
<path d="M36.7219 1.07199C37.5683 0.828993 38.6441 0.600285 39.9781 0.400166C41.3122 0.185753 42.7036 0.0856934 44.1667 0.0856934C45.6442 0.0856934 46.8922 0.285812 47.8676 0.671757C48.8574 1.04341 49.632 1.58659 50.2058 2.3013C50.7796 3.00171 51.1956 3.84507 51.4394 4.81708C51.6833 5.78909 51.798 6.87545 51.798 8.06187V17.8963H46.8492V8.64793C46.8492 7.06127 46.634 5.93203 46.218 5.2745C45.802 4.61696 45.0131 4.2882 43.8655 4.2882C43.5069 4.2882 43.1339 4.30249 42.7323 4.33108C42.3306 4.35967 41.972 4.40255 41.6708 4.44543V17.882H36.7219V1.07199Z" fill="#212330"/>
<path d="M54.8391 9.31983C54.8391 7.77606 55.083 6.41811 55.5563 5.26027C56.0297 4.10244 56.6609 3.13044 57.4355 2.35855C58.2101 1.58666 59.0994 1.0006 60.1036 0.600357C61.1077 0.200119 62.1405 0 63.2163 0C65.6979 0 67.6631 0.757594 69.0976 2.27278C70.532 3.78797 71.2636 6.00357 71.2636 8.94818C71.2636 9.23407 71.2493 9.54854 71.2349 9.8916C71.2062 10.2347 71.1919 10.5348 71.1632 10.8064H59.9314C60.0462 11.8213 60.5195 12.6218 61.3659 13.2222C62.2122 13.8225 63.3311 14.1227 64.7512 14.1227C65.6549 14.1227 66.5443 14.0369 67.4193 13.8797C68.2943 13.7082 69.0115 13.508 69.5566 13.265L70.2165 17.2674C69.9439 17.3961 69.5996 17.539 69.155 17.6677C68.7103 17.7963 68.2226 17.9107 67.6775 18.0107C67.1324 18.1108 66.5586 18.1965 65.9274 18.2537C65.3106 18.3252 64.6938 18.3538 64.0626 18.3538C62.4848 18.3538 61.122 18.1251 59.9601 17.6534C58.7982 17.196 57.8371 16.5527 57.0769 15.7522C56.3166 14.9518 55.7428 13.994 55.3842 12.8934C55.0256 11.7927 54.8391 10.592 54.8391 9.31983ZM66.4725 7.433C66.4438 7.01846 66.3721 6.60393 66.2574 6.20369C66.1283 5.80345 65.9418 5.46039 65.6979 5.14592C65.4397 4.83145 65.1241 4.58845 64.7368 4.38833C64.3495 4.18821 63.8618 4.08815 63.288 4.08815C62.7286 4.08815 62.2552 4.18821 61.8536 4.37403C61.4519 4.55986 61.122 4.81715 60.8638 5.11733C60.5913 5.43181 60.3904 5.78916 60.247 6.1894C60.1036 6.60393 60.0031 7.01846 59.9314 7.433H66.4725Z" fill="#212330"/>
<path d="M81.4482 5.36029L84.9196 0.485962H90.0406L83.9729 8.94814C85.3643 10.5348 86.5979 12.1215 87.6738 13.6938C88.7496 15.2662 89.6103 16.667 90.2701 17.8963H84.9627C84.7762 17.5676 84.561 17.153 84.2885 16.6527C84.0159 16.1524 83.729 15.6378 83.3991 15.0947C83.0692 14.5515 82.7249 14.0941 82.3663 13.7224C82.0077 13.3508 81.6491 13.0077 81.3048 12.6932C80.9749 12.9791 80.6306 13.2936 80.2863 13.6366C79.9421 13.9797 79.6121 14.4085 79.2966 14.9374C78.981 15.452 78.6797 15.9666 78.3785 16.4812C78.0773 16.9815 77.8047 17.4675 77.5752 17.8963H72.5403C72.8128 17.3531 73.1858 16.7099 73.6448 15.9523C74.1038 15.1947 74.6059 14.4228 75.151 13.6081C75.6961 12.8076 76.2842 12.0214 76.9154 11.2638C77.5465 10.5062 78.1777 9.7915 78.7802 9.13397C77.69 7.59019 76.6428 6.11789 75.6531 4.70276C74.6489 3.28763 73.6592 1.8868 72.6837 0.500256H78.0342L81.4482 5.36029Z" fill="#212330"/>
<path d="M108 9.14829C108 10.5205 107.799 11.7641 107.397 12.9077C106.996 14.0512 106.422 15.0089 105.676 15.8237C104.916 16.6242 104.026 17.2531 102.965 17.6962C101.918 18.1394 100.727 18.3538 99.4219 18.3538C98.1309 18.3538 96.969 18.1394 95.9218 17.6962C94.8747 17.2531 93.971 16.6385 93.2107 15.8237C92.4505 15.0232 91.8767 14.0512 91.4463 12.9077C91.0304 11.7641 90.8152 10.5205 90.8152 9.14829C90.8152 7.77605 91.0304 6.53245 91.4607 5.4032C91.891 4.27396 92.4935 3.31625 93.2538 2.53007C94.014 1.72959 94.9321 1.11494 95.9792 0.671816C97.0264 0.228696 98.1739 0.0142822 99.4219 0.0142822C100.684 0.0142822 101.846 0.228696 102.893 0.671816C103.94 1.11494 104.844 1.72959 105.604 2.53007C106.35 3.33054 106.938 4.28826 107.369 5.4032C107.799 6.53245 108 7.79034 108 9.14829ZM102.951 9.14829C102.951 7.61881 102.649 6.43239 102.033 5.56044C101.43 4.68849 100.555 4.25967 99.4219 4.25967C98.2887 4.25967 97.4137 4.70279 96.7969 5.56044C96.18 6.43239 95.8645 7.6331 95.8645 9.14829C95.8645 10.6635 96.18 11.8785 96.7969 12.779C97.4137 13.6796 98.2887 14.1227 99.4219 14.1227C100.555 14.1227 101.416 13.6796 102.033 12.779C102.649 11.8785 102.951 10.6778 102.951 9.14829Z" fill="#212330"/>
</svg>
